<svg width="28" height="28" viewBox="0 0 28 28" fill="none" xmlns="http://www.w3.org/2000/svg">
<g id="socials">
<rect width="28" height="28" rx="8" fill="url(#paint0_linear_0_10)"/>
<path id="Vector" fill-rule="evenodd" clip-rule="evenodd" d="M14.6397 20.9068C13.3639 20.9068 12.771 20.7206 11.7404 19.9756C11.0886 20.8137 9.02435 21.4687 8.93433 20.3481C8.93433 19.5069 8.74809 18.7961 8.53701 18.02C8.28558 17.064 8 15.9993 8 14.4565C8 10.772 11.0234 8 14.6055 8C18.1908 8 21 10.9085 21 14.4907C21.0057 16.1844 20.3393 17.8113 19.1468 19.0142C17.9544 20.2171 16.3334 20.8978 14.6397 20.9068ZM14.6924 11.1848C12.9479 11.0948 11.5883 12.3023 11.2872 14.1958C11.0389 15.7633 11.4797 17.6724 11.8553 17.7717C12.0353 17.8152 12.4885 17.4489 12.771 17.1664C13.2381 17.4891 13.782 17.6829 14.3479 17.7282C15.2168 17.77 16.0674 17.4693 16.717 16.8906C17.3665 16.3119 17.763 15.5014 17.8214 14.6335C17.8553 13.7637 17.5465 12.9154 16.9613 12.271C16.3762 11.6266 15.5614 11.2377 14.6924 11.1879V11.1848Z" fill="var(--fill-0, white)"/>
</g>
<defs>
<linearGradient id="paint0_linear_0_10" x1="1.30385e-08" y1="14" x2="28" y2="17.5" gradientUnits="userSpaceOnUse">
<stop stop-color="#4C69FE"/>
<stop offset="1" stop-color="#A356DD"/>
</linearGradient>
</defs>
</svg>
