<svg width="28" height="28" viewBox="0 0 28 28" fill="none" xmlns="http://www.w3.org/2000/svg">
<g id="socials">
<rect width="28" height="28" rx="8" fill="var(--fill-0, #0079FF)"/>
<path id="Vector" d="M14.6878 18.8998C9.42616 18.8998 6.42504 15.2211 6.29999 9.09977H8.9356C9.02217 13.5927 10.9652 15.4958 12.5042 15.8882V9.09977H14.9859V12.9746C16.5057 12.8079 18.1025 11.0421 18.6412 9.09977H21.1229C20.9199 10.1071 20.5153 11.0609 19.9343 11.9015C19.3534 12.7421 18.6086 13.4514 17.7466 13.9851C18.7088 14.4727 19.5587 15.1628 20.2401 16.01C20.9216 16.8572 21.4192 17.8421 21.7 18.8998H18.9682C18.7161 17.9811 18.2038 17.1587 17.4954 16.5358C16.787 15.9128 15.914 15.5169 14.9859 15.3977V18.8998H14.6878V18.8998Z" fill="var(--fill-0, white)"/>
</g>
</svg>
