<svg preserveAspectRatio="none" width="100%" height="100%" overflow="visible" style="display: block;" viewBox="0 0 24 24" fill="none" xmlns="http://www.w3.org/2000/svg">
<g id="Icon">
<path id="Vector" d="M15.07 2H8.93C3.33 2 2 3.33 2 8.93V15.07C2 20.67 3.33 22 8.93 22H15.07C20.67 22 22 20.67 22 15.07V8.93C22 3.33 20.67 2 15.07 2ZM18.72 16.83H17.05C16.38 16.83 16.18 16.29 14.98 15.09C13.95 14.06 13.49 13.92 13.23 13.92C12.87 13.92 12.77 14.02 12.77 14.5V16.09C12.77 16.52 12.63 16.78 11.5 16.78C9.63 16.78 7.56 15.65 6.1 13.55C3.91 10.54 3.31 8.28 3.31 7.82C3.31 7.56 3.41 7.32 3.89 7.32H5.56C5.99 7.32 6.15 7.52 6.32 7.98C7.17 10.4 8.6 12.52 9.19 12.52C9.41 12.52 9.51 12.42 9.51 11.86V9.59C9.44 8.46 8.85 8.36 8.85 7.96C8.85 7.75 9.02 7.54 9.29 7.54H11.92C12.28 7.54 12.41 7.73 12.41 8.15V11.43C12.41 11.79 12.57 11.92 12.67 11.92C12.89 11.92 13.07 11.79 13.49 11.38C14.75 9.96 15.66 7.76 15.66 7.76C15.78 7.5 15.97 7.26 16.4 7.26H18.07C18.57 7.26 18.68 7.52 18.57 7.87C18.38 8.76 16.39 11.75 16.39 11.75C16.21 12.06 16.14 12.19 16.39 12.54C16.57 12.8 17.16 13.29 17.55 13.75C18.26 14.57 18.81 15.25 18.96 15.73C19.1 16.21 18.85 16.45 18.37 16.45L18.72 16.83Z" fill="var(--fill-0, #9CA3AF)"/>
</g>
</svg>
