<svg preserveAspectRatio="none" width="100%" height="100%" overflow="visible" style="display: block;" viewBox="0 0 24 24" fill="none" xmlns="http://www.w3.org/2000/svg">
<g id="Icon">
<path id="Vector" d="M12 2C6.48 2 2 6.48 2 12C2 17.52 6.48 22 12 22C17.52 22 22 17.52 22 12C22 6.48 17.52 2 12 2ZM16.64 8.8C16.49 10.38 15.84 14.22 15.51 15.99C15.37 16.74 15.09 16.99 14.83 17.02C14.25 17.07 13.81 16.64 13.25 16.27C12.37 15.69 11.87 15.33 11.02 14.77C10.03 14.12 10.67 13.76 11.24 13.18C11.39 13.03 13.95 10.7 14 10.49C14.01 10.46 14.01 10.35 13.93 10.29C13.85 10.23 13.77 10.25 13.7 10.27C13.61 10.29 12.07 11.3 9.09 13.3C8.65 13.6 8.26 13.75 7.91 13.74C7.52 13.73 6.78 13.52 6.22 13.34C5.54 13.11 5 12.99 5.05 12.6C5.08 12.4 5.28 12.19 5.66 11.99C8.05 10.95 9.65 10.26 10.45 9.92C12.73 8.97 13.21 8.8 13.52 8.8C13.59 8.8 13.74 8.82 13.84 8.92C13.92 9 13.94 9.11 13.95 9.19C13.94 9.25 13.94 9.43 13.94 9.43L16.64 8.8Z" fill="var(--fill-0, #9CA3AF)"/>
</g>
</svg>
