<svg width="40" height="40" viewBox="0 0 40 40" fill="none" xmlns="http://www.w3.org/2000/svg">
<rect width="40" height="40" rx="10" fill="white"/>
<path d="M28.1451 12.9879C28.1737 12.9518 28.1905 12.9213 28.216 12.9021C28.2788 12.8542 28.3441 12.8075 28.4119 12.7665C29.091 12.3529 29.6719 11.8343 30.1196 11.172C30.1918 11.065 30.2689 10.9611 30.3398 10.8535C30.5537 10.5295 30.6967 10.1738 30.7502 9.79198C30.8137 9.33986 30.8603 8.88464 30.8883 8.42879C30.9101 8.07991 30.8255 7.73787 30.7533 7.39708C30.7415 7.33986 30.7129 7.28451 30.6868 7.23165C30.6476 7.15143 30.601 7.07432 30.5624 6.99409C30.351 6.55815 30.012 6.23228 29.6464 5.92942C29.1688 5.53327 28.629 5.23912 28.0724 4.97108C27.4113 4.65267 26.7055 4.5283 25.9834 4.47544C25.6265 4.44932 25.2683 4.4232 24.9113 4.43128C24.3703 4.44372 23.8286 4.47357 23.2894 4.51772C22.402 4.59048 21.5537 4.84546 20.7104 5.11101C19.8628 5.3778 19.0612 5.7472 18.3193 6.2385C17.887 6.52519 17.5133 6.88402 17.1346 7.23601C16.9592 7.39894 16.8025 7.57743 16.6538 7.76461C16.5201 7.93252 16.4486 8.12282 16.4069 8.33178C16.3752 8.49098 16.3634 8.64583 16.4163 8.80068C16.43 8.84111 16.4455 8.88277 16.4673 8.91946C16.8018 9.4829 17.1302 10.0519 17.3199 10.6831C17.4293 11.0482 17.517 11.422 17.5817 11.7976C17.6414 12.1446 17.6377 12.4997 17.6364 12.8529C17.6358 13.1496 17.5867 13.4288 17.4884 13.7105C17.3895 13.9941 17.2652 14.2627 17.1308 14.5277C16.9505 14.8822 16.777 15.2385 16.6495 15.6166C16.5183 16.0072 16.3603 16.3884 16.2303 16.7795C16.0531 17.3144 15.971 17.871 15.8715 18.4232C15.7627 19.0252 15.6899 19.6315 15.6464 20.2416C15.6389 20.3504 15.6314 20.4605 15.6346 20.5693C15.647 21.0364 15.6582 21.5034 15.68 21.9698C15.7061 22.5308 15.8721 23.0625 16.0344 23.5948C16.078 23.7372 16.129 23.8834 16.0817 24.0308C15.9598 24.4108 15.828 24.7876 15.4853 25.0376C15.453 25.0613 15.42 25.0843 15.3926 25.1129C15.1489 25.3654 14.8404 25.4966 14.5096 25.5836C14.2073 25.6632 13.9188 25.6017 13.637 25.4854C13.5637 25.4549 13.4853 25.4356 13.4163 25.3983C13.3298 25.3517 13.2508 25.292 13.1694 25.236C12.9897 25.1141 12.8472 24.9568 12.7303 24.7746C12.6607 24.6657 12.5898 24.5575 12.5176 24.4506C12.3354 24.1807 12.2428 23.8809 12.2048 23.56C12.1426 23.0258 12.114 22.4897 12.1619 21.9543C12.188 21.6589 12.2421 21.3635 12.3112 21.0749C12.402 20.6937 12.5201 20.3193 12.6252 19.9419C12.6601 19.8175 12.6955 19.6931 12.7204 19.5669C12.7465 19.4338 12.6936 19.3399 12.5649 19.3019C12.2328 19.2037 11.9393 19.0233 11.6296 18.8772C11.5587 18.8436 11.4965 18.7907 11.4343 18.7416C11.3448 18.6707 11.2602 18.5936 11.1706 18.5227C10.8964 18.3044 10.6967 18.0295 10.555 17.7111C10.4318 17.435 10.2782 17.1707 10.2023 16.8747C10.1507 16.6726 10.1028 16.4698 10.0537 16.2671C10.0419 16.2192 10.0326 16.1713 10.0189 16.111C9.93493 16.1788 9.91379 16.2603 9.90197 16.3498C9.84413 16.797 9.91503 17.231 10.0307 17.6601C10.1339 18.0451 10.2695 18.4176 10.4586 18.7702C10.5972 19.0277 10.7763 19.2509 11.0015 19.4363C11.1321 19.5438 11.2614 19.6527 11.3982 19.7516C11.4735 19.8057 11.5612 19.8448 11.6476 19.8803C11.7956 19.9412 11.8578 20.0557 11.813 20.2086C11.6992 20.5942 11.5736 20.9767 11.4722 21.366C11.2994 22.0277 11.2229 22.7024 11.2397 23.3877C11.2571 24.121 11.4772 24.7938 11.828 25.4294C11.9356 25.6241 12.0282 25.8287 12.1924 25.9891C12.3653 26.1583 12.5693 26.2789 12.7763 26.3983C13.165 26.6228 13.591 26.6999 14.0307 26.7248C14.2931 26.7397 14.5568 26.7453 14.8193 26.7584C14.8671 26.7609 14.9181 26.7708 14.961 26.7907C15.055 26.8349 15.1507 26.8803 15.2359 26.9387C15.3746 27.0339 15.4331 27.1751 15.4511 27.3424C15.4884 27.6925 15.5214 28.0438 15.6613 28.3741C15.7683 28.6259 15.9318 28.8361 16.1277 29.0233C16.1563 29.0507 16.1899 29.0731 16.2247 29.0923C16.6526 29.3299 17.1022 29.514 17.5786 29.6272C17.7222 29.6614 17.874 29.6682 18.0226 29.6695C18.3802 29.6732 18.7384 29.6676 19.096 29.6645C19.165 29.6639 19.165 29.6614 19.2341 29.7385C19.1433 29.8697 19.0481 30.0016 18.9592 30.1371C18.6856 30.5525 18.5568 31.0059 18.5842 31.5059C18.601 31.8125 18.7247 32.0731 18.9094 32.3069C18.966 32.3778 19.0518 32.4344 19.1352 32.4736C19.3814 32.5886 19.6271 32.6962 19.8964 32.7652C20.2956 32.8678 20.6992 32.8927 21.1041 32.9108C21.6513 32.935 22.1974 32.8989 22.7384 32.81C22.8945 32.7845 23.0475 32.7385 23.1999 32.6937C23.2701 32.6732 23.3348 32.6328 23.4045 32.5998C23.3964 32.5165 23.3479 32.5009 23.2819 32.4978C22.989 32.4848 22.6967 32.4661 22.4038 32.4549C21.8808 32.435 21.3628 32.3766 20.8615 32.2236C20.5388 32.1253 20.2216 32.0115 19.961 31.7777C19.6657 31.5121 19.5276 31.2024 19.5829 30.797C19.6178 30.5414 19.665 30.297 19.8099 30.0812C19.943 29.8834 20.0854 29.6925 20.2222 29.4972C20.3305 29.343 20.4368 29.1875 20.5438 29.0326C20.555 29.0165 20.5649 28.9984 20.5724 28.9804C20.6296 28.8386 20.555 28.7385 20.4032 28.7584C20.2801 28.7746 20.1569 28.7951 20.0369 28.8256C19.3056 29.0078 18.5854 28.9201 17.874 28.7242C17.4399 28.6048 17.0724 28.3766 16.8305 27.9817C16.6911 27.7547 16.5923 27.5096 16.586 27.2416C16.5836 27.1203 16.6097 26.9928 16.6501 26.8778C16.739 26.6253 16.8522 26.3933 17.073 26.2105C17.3951 25.9443 17.7533 25.7683 18.1476 25.6514C18.6433 25.504 19.147 25.3946 19.6582 25.3137C20.1582 25.2348 20.6538 25.1241 21.1526 25.0382C21.6271 24.9568 22.1035 24.8815 22.5805 24.8187C22.8603 24.782 23.1445 24.7727 23.4268 24.7559C23.7527 24.7366 24.0543 24.8424 24.3516 24.9568C24.5749 25.0426 24.7826 25.1608 24.9648 25.3169C25.0388 25.3803 25.0935 25.4655 25.1588 25.5389C25.1918 25.5762 25.2241 25.6154 25.2639 25.6446C25.3628 25.718 25.4673 25.7559 25.5966 25.7118C25.9225 25.5998 26.2092 25.43 26.4443 25.1763C26.4841 25.1334 26.5239 25.0855 26.5469 25.0326C26.693 24.7024 26.7944 24.3604 26.7875 23.996C26.7801 23.5768 26.6613 23.1838 26.4828 22.8069C26.4492 22.7354 26.3895 22.7111 26.3155 22.7018C26.0836 22.6726 25.8528 22.6396 25.6209 22.6098C24.6943 22.4922 23.7683 22.3703 22.841 22.2596C22.1688 22.1794 21.5108 22.0271 20.8479 21.8971C20.5462 21.838 20.3454 21.6496 20.203 21.3933C20.0301 21.0818 19.9449 20.7391 19.8709 20.3933C19.7751 19.9456 19.7198 19.4922 19.6837 19.0364C19.6582 18.7093 19.6377 18.3822 19.6047 18.0557C19.5867 17.8753 19.6712 17.6813 19.9032 17.6483C20.1097 17.6185 20.3161 17.5886 20.5232 17.565C20.869 17.5258 21.2148 17.4891 21.5605 17.4562C22.2235 17.3927 22.8864 17.3355 23.5494 17.2708C23.9648 17.2304 24.379 17.1807 24.7938 17.1346C24.9026 17.1228 25.0102 17.1011 25.119 17.0955C25.2005 17.0911 25.2428 17.0525 25.2782 16.9848C25.3696 16.8088 25.4679 16.6365 25.5624 16.4618C25.6967 16.2136 25.9125 16.0532 26.1601 15.9437C26.4281 15.8249 26.7117 15.7609 27.0108 15.7503C29.2627 15.672 31.5145 15.7285 33.7664 15.7136C34.04 15.7118 34.313 15.6974 34.586 15.7018C34.7179 15.7037 34.851 15.7298 34.9809 15.7565C35.1793 15.7976 35.3329 15.917 35.4598 16.0681C35.6072 16.2428 35.6526 16.4605 35.6644 16.6794C35.6824 17.0003 35.5668 17.2777 35.3578 17.5246C35.0382 17.9008 34.6936 18.2491 34.295 18.542C34.1706 18.6334 34.0543 18.7354 33.9275 18.8218C33.6818 18.9897 33.4355 19.1583 33.1793 19.31C33.0668 19.3772 32.9324 19.4126 32.8043 19.4474C32.5568 19.5146 32.3329 19.4331 32.1215 19.3125C31.6744 19.0575 31.3199 18.6974 30.9903 18.3094C30.8746 18.1732 30.7664 18.0302 30.6513 17.8933C30.6128 17.8473 30.563 17.81 30.5145 17.7652C30.4604 17.8492 30.4884 17.9108 30.5176 17.9661C30.6165 18.1552 30.716 18.3442 30.8224 18.5289C31.0842 18.9848 31.4163 19.3846 31.7956 19.7484C31.9337 19.8809 32.0923 19.9661 32.2714 20.0109C32.5916 20.0911 32.9088 20.0743 33.2241 19.9661C33.5145 19.8666 33.7732 19.713 34.0245 19.5426C34.1302 19.4711 34.2403 19.4058 34.3647 19.3268C34.3908 19.3822 34.4194 19.4226 34.4281 19.4667C34.4579 19.6172 34.4847 19.769 34.5064 19.9213C34.5742 20.4033 34.6433 20.8846 34.7042 21.3672C34.7372 21.6284 34.7602 21.8909 34.7782 22.1533C34.8118 22.634 34.8392 23.1154 34.8684 23.5961C34.8989 24.1073 34.9169 24.6185 34.8852 25.1303C34.8802 25.2099 34.8765 25.2895 34.8765 25.3685C34.8783 26.1744 34.7403 26.958 34.5375 27.736C34.2981 28.6558 33.9094 29.5152 33.5058 30.3678C33.2658 30.8747 32.948 31.3374 32.6115 31.7895C32.2664 32.254 31.8908 32.6919 31.4921 33.106C31.0867 33.5271 30.67 33.9437 30.1787 34.2727C29.9729 34.4108 29.7807 34.5712 29.5686 34.6993C28.7938 35.1664 27.9965 35.5955 27.1501 35.9182C26.5481 36.1477 25.9281 36.3299 25.305 36.4997C24.9362 36.6004 24.5649 36.69 24.1899 36.7596C23.8777 36.8175 23.5618 36.8554 23.2465 36.8977C22.9909 36.9325 22.7347 36.9705 22.4772 36.9897C22.0761 37.0196 21.6744 37.0438 21.2726 37.0532C20.9946 37.06 20.716 37.0401 20.438 37.0289C19.8715 37.0059 19.3099 36.9313 18.7477 36.8629C18.1091 36.7851 17.4859 36.6384 16.869 36.4705C16.3758 36.3361 15.8926 36.1626 15.4076 36.0003C14.7415 35.7777 14.1128 35.4686 13.4865 35.1558C13.2956 35.0606 13.1165 34.9425 12.93 34.838C12.3752 34.5258 11.8311 34.1956 11.3217 33.8125C11.0083 33.5768 10.7117 33.3175 10.415 33.0606C10.1147 32.8007 9.81428 32.5389 9.52884 32.2621C9.23282 31.9754 8.94923 31.6744 8.67063 31.371C8.27075 30.935 7.90632 30.4686 7.54936 29.9966C7.50458 29.9369 7.45794 29.8784 7.41752 29.8156C6.96851 29.1178 6.53257 28.412 6.1868 27.6552C5.79438 26.7957 5.43058 25.9251 5.17249 25.0146C5.00272 24.417 4.85595 23.8144 4.76267 23.1993C4.69177 22.7329 4.60595 22.269 4.53817 21.8025C4.50458 21.5718 4.49588 21.338 4.47598 21.1054C4.42933 20.5743 4.45421 20.042 4.47349 19.5109C4.49401 18.9406 4.5705 18.3747 4.65446 17.8088C4.76951 17.0295 4.96914 16.2715 5.15881 15.5103C5.30433 14.9269 5.4909 14.3542 5.72909 13.8019C5.93493 13.3231 6.1613 12.8529 6.39389 12.3865C6.64886 11.8753 6.91379 11.3691 7.18866 10.8685C7.49463 10.3113 7.82672 9.76772 8.20048 9.25342C8.58605 8.72233 9.00085 8.21424 9.45607 7.73974C9.70732 7.47792 9.94986 7.20802 10.2061 6.95243C10.8914 6.26897 11.6358 5.65951 12.4741 5.17009C12.9032 4.91947 13.3217 4.65019 13.7596 4.41573C14.3329 4.10852 14.915 3.8181 15.5388 3.61971C15.874 3.51275 16.1961 3.36412 16.5307 3.25529C17.1115 3.06623 17.6924 2.87407 18.2987 2.78389C18.8435 2.70243 19.3902 2.62469 19.938 2.5681C20.4119 2.51897 20.8902 2.51213 21.3647 2.46735C21.8416 2.42195 22.3186 2.4375 22.795 2.43812C23.6675 2.43874 24.5295 2.54757 25.3846 2.71735C25.8914 2.8181 26.3964 2.92506 26.892 3.06934C27.2303 3.16822 27.5668 3.27456 27.8976 3.39459C28.3877 3.57245 28.8765 3.75902 29.3292 4.02083C29.703 4.23725 30.0829 4.44869 30.4318 4.70118C30.6992 4.89459 30.9206 5.15205 31.1681 5.37407C31.5375 5.70553 31.8392 6.09422 32.1134 6.5028C32.2453 6.69932 32.3491 6.91698 32.4436 7.13526C32.6414 7.59173 32.8124 8.06063 32.8765 8.55628C32.9132 8.84048 32.9119 9.13091 32.9119 9.41884C32.9119 9.63215 32.8883 9.84546 32.8727 10.0581C32.869 10.1123 32.8609 10.1676 32.8454 10.2192C32.68 10.7528 32.4859 11.2671 32.0885 11.6875C31.8684 11.9207 31.6283 12.1266 31.3802 12.3237C31.1084 12.5395 30.7819 12.6564 30.4536 12.7584C29.9841 12.9045 29.5052 13.0196 29.017 13.0818C28.8062 13.1085 28.5904 13.0924 28.3765 13.0911C28.2938 13.0917 28.2247 13.0414 28.1451 12.9879Z" fill="#222224"/>
</svg>
