<svg xmlns="http://www.w3.org/2000/svg" viewBox="0 0 40 40" width="40" height="40">
<path d="M40 40C26.6673 40 13.3339 40 0 40C0 26.6673 0 13.3346 0 0C13.3315 0 26.6635 0 40 0C40 13.3321 40 26.666 40 40ZM28.1436 12.9882C28.2232 13.0417 28.2923 13.092 28.3799 13.0926C28.5939 13.0939 28.8097 13.1101 29.0205 13.0833C29.5087 13.0211 29.9869 12.9061 30.4571 12.7599C30.7848 12.6579 31.1119 12.541 31.3837 12.3252C31.6318 12.1281 31.8719 11.9222 32.092 11.689C32.4888 11.2686 32.6834 10.7543 32.8488 10.2208C32.865 10.1691 32.8725 10.1138 32.8762 10.0597C32.8918 9.84638 32.916 9.63307 32.9154 9.42039C32.9154 9.13245 32.9166 8.84265 32.8799 8.55783C32.8159 8.06218 32.6449 7.59327 32.4471 7.13681C32.3526 6.91915 32.2487 6.70086 32.1169 6.50435C31.8426 6.09576 31.5416 5.70646 31.1716 5.37562C30.9241 5.1536 30.7027 4.89614 30.4353 4.70273C30.0858 4.45024 29.7064 4.2388 29.3327 4.02238C28.8799 3.76057 28.3911 3.574 27.9011 3.39614C27.5702 3.27612 27.2332 3.16977 26.8955 3.07089C26.3998 2.92661 25.8942 2.81965 25.388 2.7189C24.5329 2.54913 23.6716 2.4403 22.7985 2.43967C22.3215 2.43905 21.8445 2.42351 21.3681 2.4689C20.8936 2.51368 20.4154 2.52052 19.9415 2.56965C19.3936 2.62624 18.8476 2.70398 18.3022 2.78544C17.6959 2.87562 17.1144 3.0684 16.5342 3.25684C16.1996 3.36567 15.8775 3.51492 15.5423 3.62126C14.9185 3.81965 14.3364 4.11007 13.763 4.41728C13.3259 4.65174 12.9067 4.92101 12.4776 5.17164C11.6393 5.66106 10.8949 6.27052 10.2096 6.95397C9.95273 7.21019 9.71019 7.48009 9.45957 7.74128C9.00434 8.21579 8.58954 8.72387 8.20397 9.25496C7.83022 9.76989 7.49813 10.3128 7.19216 10.87C6.91728 11.3706 6.65236 11.8769 6.39738 12.388C6.16479 12.8545 5.93843 13.3246 5.73258 13.8035C5.49502 14.3557 5.30783 14.9278 5.16231 15.5118C4.97263 16.273 4.773 17.0311 4.65796 17.8103C4.57462 18.3762 4.49751 18.9421 4.47699 19.5124C4.45771 20.0429 4.43283 20.5752 4.47947 21.1069C4.5 21.3395 4.50808 21.5734 4.54166 21.8041C4.60945 22.2705 4.69527 22.735 4.76616 23.2008C4.86007 23.8159 5.00684 24.4191 5.17599 25.0161C5.43407 25.9266 5.79788 26.7972 6.19029 27.6567C6.53606 28.4135 6.97139 29.1194 7.42101 29.8171C7.46143 29.8799 7.50745 29.9384 7.55285 29.9981C7.9092 30.4701 8.27362 30.9365 8.67412 31.3725C8.95273 31.6766 9.23631 31.977 9.53233 32.2636C9.81777 32.5404 10.1175 32.8022 10.4185 33.0622C10.7152 33.319 11.0118 33.5783 11.3252 33.814C11.8339 34.1965 12.3781 34.5267 12.9334 34.8395C13.1194 34.944 13.2991 35.0621 13.49 35.1573C14.1163 35.4701 14.745 35.7798 15.4111 36.0018C15.8967 36.1641 16.3793 36.3376 16.8725 36.472C17.49 36.6399 18.1125 36.7867 18.7512 36.8644C19.314 36.9328 19.875 37.0074 20.4415 37.0304C20.7195 37.0416 20.9981 37.0615 21.2761 37.0547C21.6778 37.0447 22.0796 37.0211 22.4807 36.9913C22.7382 36.972 22.9938 36.934 23.25 36.8992C23.5646 36.8569 23.8812 36.819 24.1934 36.7612C24.5684 36.6915 24.9396 36.6019 25.3084 36.5012C25.9316 36.3314 26.5516 36.1498 27.1536 35.9197C28 35.597 28.7966 35.1679 29.5721 34.7008C29.7842 34.5733 29.9757 34.4123 30.1822 34.2742C30.6735 33.9452 31.0901 33.5286 31.4956 33.1075C31.8942 32.6934 32.2699 32.2556 32.615 31.791C32.9515 31.3389 33.2692 30.8762 33.5093 30.3694C33.9129 29.5168 34.301 28.6567 34.541 27.7375C34.7437 26.9595 34.8824 26.176 34.8799 25.37C34.8799 25.2904 34.8837 25.2108 34.8886 25.1318C34.9204 24.62 34.9023 24.1088 34.8719 23.5976C34.8426 23.1163 34.8153 22.6355 34.7817 22.1548C34.763 21.8924 34.7406 21.6293 34.7077 21.3688C34.6467 20.8862 34.5777 20.4048 34.5099 19.9229C34.4881 19.7705 34.462 19.6188 34.4316 19.4683C34.4228 19.4241 34.3936 19.3837 34.3681 19.3283C34.2437 19.4067 34.1337 19.4726 34.0279 19.5441C33.7761 19.7145 33.518 19.8681 33.2276 19.9676C32.9123 20.0758 32.5951 20.0926 32.2748 20.0124C32.0951 19.9676 31.9372 19.8824 31.7991 19.75C31.4204 19.3862 31.0883 18.9863 30.8258 18.5305C30.7195 18.3458 30.62 18.1567 30.5211 17.9676C30.4919 17.9123 30.4639 17.8507 30.518 17.7668C30.5665 17.8115 30.6163 17.8482 30.6548 17.8949C30.7699 18.0317 30.8781 18.1747 30.9937 18.3109C31.3233 18.699 31.6778 19.0591 32.125 19.314C32.3364 19.4347 32.5603 19.5161 32.8078 19.449C32.9359 19.4142 33.0702 19.3787 33.1828 19.3115C33.4384 19.1598 33.6847 18.9913 33.9309 18.8234C34.0578 18.7369 34.1741 18.6343 34.2985 18.5435C34.6971 18.2506 35.0416 17.9023 35.3613 17.5261C35.5709 17.2792 35.6859 17.0025 35.6679 16.681C35.6554 16.4627 35.61 16.245 35.4633 16.0696C35.3364 15.9185 35.1828 15.7991 34.9844 15.7581C34.8544 15.7307 34.7214 15.7052 34.5895 15.7033C34.3165 15.699 34.0429 15.7133 33.7699 15.7152C31.518 15.7301 29.2655 15.6729 27.0143 15.7518C26.7151 15.7624 26.4316 15.8265 26.1635 15.9453C25.916 16.0553 25.7002 16.2158 25.5659 16.4633C25.4714 16.638 25.3731 16.8103 25.2817 16.9863C25.2462 17.0541 25.204 17.0926 25.1225 17.097C25.0137 17.1026 24.9054 17.1244 24.7972 17.1362C24.3824 17.1822 23.9683 17.2319 23.5528 17.2724C22.8905 17.337 22.227 17.3943 21.564 17.4577C21.2176 17.4907 20.8719 17.5273 20.5267 17.5665C20.3196 17.5902 20.1132 17.62 19.9067 17.6499C19.6741 17.6834 19.5902 17.8775 19.6082 18.0572C19.6411 18.3831 19.6617 18.7108 19.6872 19.0379C19.7232 19.4938 19.778 19.9471 19.8744 20.3949C19.9484 20.7406 20.0336 21.0833 20.2064 21.3949C20.3489 21.6517 20.5497 21.8395 20.8513 21.8986C21.5143 22.0286 22.1722 22.1809 22.8445 22.2612C23.7717 22.3719 24.6977 22.4938 25.6243 22.6113C25.8557 22.6405 26.087 22.6741 26.319 22.7033C26.393 22.7127 26.4527 22.7369 26.4863 22.8084C26.6642 23.1853 26.7829 23.5777 26.791 23.9975C26.7979 24.3619 26.6959 24.7046 26.5503 25.0342C26.5267 25.087 26.4875 25.1349 26.4477 25.1778C26.2133 25.4309 25.926 25.6013 25.6001 25.7133C25.4714 25.7574 25.3669 25.7195 25.2674 25.6461C25.2282 25.6169 25.1952 25.5777 25.1623 25.5404C25.097 25.4664 25.0416 25.3818 24.9683 25.3184C24.786 25.1623 24.5783 25.0435 24.3551 24.9583C24.0578 24.8445 23.7562 24.7388 23.4303 24.7574C23.148 24.7742 22.8638 24.7836 22.5839 24.8202C22.1063 24.8831 21.6306 24.9583 21.1561 25.0398C20.6567 25.1256 20.1617 25.2363 19.6617 25.3153C19.1505 25.3961 18.6467 25.5056 18.1511 25.653C17.7568 25.7699 17.3986 25.9459 17.0765 26.212C16.8551 26.3949 16.7425 26.6262 16.6536 26.8793C16.6132 26.9944 16.587 27.1225 16.5895 27.2431C16.5951 27.5118 16.6946 27.7562 16.8339 27.9832C17.0759 28.3781 17.4434 28.6063 17.8775 28.7257C18.5895 28.921 19.3091 29.0087 20.0404 28.8271C20.1604 28.7972 20.2836 28.7767 20.4067 28.7599C20.5584 28.74 20.6324 28.8401 20.5758 28.9819C20.5684 29 20.5584 29.018 20.5472 29.0342C20.4403 29.1896 20.3339 29.3445 20.2257 29.4987C20.0889 29.694 19.9459 29.8849 19.8134 30.0827C19.6685 30.2978 19.6212 30.5429 19.5864 30.7985C19.5305 31.2039 19.6691 31.5136 19.9645 31.7792C20.2251 32.013 20.5423 32.1262 20.865 32.2251C21.3669 32.3781 21.8843 32.4372 22.4073 32.4564C22.7002 32.4676 22.9925 32.4863 23.2854 32.4993C23.3513 32.5024 23.3999 32.5174 23.4079 32.6013C23.3377 32.6343 23.2736 32.6747 23.2033 32.6952C23.051 32.74 22.898 32.7854 22.7419 32.8115C22.2008 32.9005 21.6548 32.9365 21.1076 32.9123C20.7027 32.8942 20.2997 32.87 19.8999 32.7668C19.6312 32.6977 19.3849 32.5901 19.1387 32.4751C19.0553 32.4359 18.9695 32.3793 18.9129 32.3084C18.7276 32.0752 18.6045 31.814 18.5877 31.5074C18.5597 31.008 18.689 30.5541 18.9627 30.1386C19.0522 30.0031 19.1467 29.8712 19.2375 29.74C19.1685 29.6629 19.1685 29.6654 19.0995 29.666C18.7419 29.6691 18.3837 29.6753 18.0261 29.671C17.8775 29.6691 17.7257 29.6623 17.5821 29.6287C17.1057 29.5155 16.6561 29.3314 16.2282 29.0939C16.194 29.0746 16.1598 29.0522 16.1312 29.0248C15.9353 28.8377 15.7717 28.6275 15.6648 28.3756C15.5205 28.0441 15.4875 27.6928 15.4502 27.3426C15.4328 27.176 15.3737 27.0348 15.2351 26.939C15.1499 26.8806 15.0547 26.8352 14.9602 26.791C14.9173 26.7711 14.8663 26.7605 14.8184 26.7587C14.5553 26.7456 14.2923 26.74 14.0298 26.7251C13.5902 26.7002 13.1642 26.6231 12.7755 26.3986C12.5684 26.2792 12.3644 26.1586 12.1915 25.9894C12.0274 25.8289 11.9347 25.6243 11.8271 25.4297C11.4764 24.7941 11.2562 24.1212 11.2388 23.388C11.2226 22.7027 11.2985 22.028 11.4714 21.3663C11.5727 20.9776 11.6984 20.5945 11.8122 20.2089C11.857 20.0566 11.7954 19.9415 11.6468 19.8806C11.5603 19.8451 11.4726 19.8059 11.3974 19.7518C11.2606 19.6536 11.1306 19.5441 11.0006 19.4365C10.7755 19.2512 10.5964 19.028 10.4577 18.7705C10.268 18.4185 10.1331 18.0454 10.0298 17.6604C9.91417 17.2313 9.84389 16.7966 9.90111 16.3501C9.91292 16.2606 9.93407 16.1791 10.018 16.1113C10.0311 16.1716 10.041 16.2195 10.0528 16.2674C10.102 16.4701 10.1499 16.6729 10.2015 16.875C10.2774 17.171 10.4303 17.4353 10.5541 17.7114C10.6959 18.0298 10.8955 18.3041 11.1698 18.523C11.2593 18.5945 11.3439 18.6716 11.4334 18.7419C11.4956 18.791 11.5578 18.8439 11.6287 18.8775C11.9378 19.0236 12.232 19.204 12.5634 19.3016C12.6921 19.3395 12.745 19.4334 12.7189 19.5665C12.694 19.6928 12.6586 19.8171 12.6237 19.9415C12.5186 20.319 12.4005 20.6934 12.3097 21.0746C12.2407 21.3632 12.1866 21.6586 12.1604 21.954C12.1132 22.4894 12.1412 23.0255 12.2033 23.5597C12.2407 23.8806 12.3339 24.1809 12.5162 24.4502C12.5883 24.5572 12.6592 24.6654 12.7288 24.7742C12.8458 24.9564 12.9882 25.1138 13.1679 25.2357C13.2494 25.291 13.329 25.3507 13.4148 25.398C13.4838 25.4353 13.5628 25.4546 13.6356 25.485C13.9173 25.6013 14.2058 25.6629 14.5081 25.5833C14.8389 25.4962 15.1474 25.365 15.3912 25.1125C15.4185 25.0839 15.4515 25.0609 15.4838 25.0373C15.8265 24.7873 15.9583 24.4104 16.0802 24.0304C16.1275 23.8831 16.0765 23.7369 16.0329 23.5945C15.8713 23.0622 15.7046 22.5304 15.6785 21.9695C15.6567 21.5031 15.6455 21.036 15.6331 20.569C15.63 20.4602 15.6374 20.3501 15.6449 20.2413C15.6884 19.6312 15.7612 19.0249 15.87 18.4229C15.9695 17.8706 16.0516 17.314 16.2288 16.7798C16.3588 16.3887 16.5162 16.0074 16.648 15.6169C16.7755 15.2382 16.9484 14.8824 17.1293 14.528C17.2643 14.263 17.388 13.9944 17.4869 13.7108C17.5852 13.4285 17.6343 13.1492 17.6349 12.8532C17.6362 12.5 17.6399 12.1449 17.5802 11.7979C17.5155 11.4223 17.4278 11.0485 17.3184 10.6834C17.1287 10.0522 16.801 9.4832 16.4658 8.91977C16.444 8.88307 16.4285 8.84141 16.4148 8.80098C16.3613 8.64613 16.3737 8.49128 16.4055 8.33208C16.4471 8.12375 16.5186 7.93345 16.6523 7.76492C16.801 7.57773 16.9577 7.39987 17.1331 7.23631C17.5118 6.88432 17.8856 6.52487 18.3178 6.2388C19.0597 5.74751 19.8619 5.3781 20.7089 5.11131C21.5528 4.84577 22.4011 4.59079 23.2879 4.51803C23.8277 4.47388 24.3688 4.44402 24.9098 4.43159C25.2668 4.4235 25.625 4.44962 25.9819 4.47574C26.7039 4.52798 27.4098 4.65298 28.0709 4.97139C28.6275 5.23942 29.1673 5.53358 29.6449 5.92972C30.0099 6.23258 30.3495 6.55845 30.5609 6.99439C30.6001 7.07462 30.6461 7.15173 30.6853 7.23196C30.7114 7.28544 30.7394 7.34017 30.7518 7.39738C30.8233 7.73755 30.9085 8.08021 30.8868 8.42909C30.8582 8.88494 30.8115 9.34016 30.7487 9.79228C30.6952 10.1741 30.5522 10.5298 30.3383 10.8538C30.2674 10.9614 30.1903 11.0653 30.1181 11.1723C29.671 11.8339 29.0895 12.3526 28.4104 12.7668C28.3426 12.8078 28.278 12.8545 28.2145 12.9023C28.189 12.9216 28.1729 12.9521 28.1436 12.9882Z" fill="#CC0000"/>
<path d="M28.1451 12.9878C28.1737 12.9517 28.1905 12.9212 28.216 12.902C28.2788 12.8541 28.3441 12.8074 28.4119 12.7664C29.091 12.3528 29.6718 11.8342 30.1196 11.1719C30.1917 11.0649 30.2688 10.961 30.3397 10.8535C30.5537 10.5295 30.6967 10.1737 30.7502 9.79189C30.8136 9.33978 30.8603 8.88455 30.8882 8.42871C30.91 8.07983 30.8254 7.73779 30.7533 7.39699C30.7415 7.33978 30.7129 7.28443 30.6868 7.23157C30.6476 7.15135 30.6009 7.07423 30.5624 6.99401C30.3509 6.55806 30.012 6.23219 29.6463 5.92933C29.1687 5.53319 28.6289 5.23903 28.0723 4.971C27.4113 4.65259 26.7054 4.52821 25.9834 4.47535C25.6264 4.44923 25.2682 4.42312 24.9113 4.4312C24.3702 4.44364 23.8286 4.47349 23.2894 4.51764C22.4019 4.5904 21.5537 4.84538 20.7104 5.11093C19.8628 5.37772 19.0611 5.74712 18.3192 6.23841C17.887 6.5251 17.5133 6.88393 17.1345 7.23592C16.9592 7.39886 16.8024 7.57734 16.6538 7.76453C16.5201 7.93244 16.4486 8.12274 16.4069 8.33169C16.3752 8.4909 16.3634 8.64575 16.4163 8.8006C16.4299 8.84102 16.4455 8.88269 16.4672 8.91938C16.8018 9.48281 17.1302 10.0518 17.3199 10.6831C17.4293 11.0481 17.517 11.4219 17.5817 11.7975C17.6414 12.1445 17.6376 12.4996 17.6364 12.8528C17.6358 13.1495 17.5867 13.4287 17.4884 13.7104C17.3895 13.994 17.2651 14.2627 17.1308 14.5276C16.9505 14.8821 16.7769 15.2384 16.6495 15.6165C16.5182 16.0071 16.3603 16.3883 16.2303 16.7794C16.0531 17.3143 15.971 17.8709 15.8715 18.4231C15.7626 19.0251 15.6899 19.6314 15.6464 20.2415C15.6389 20.3503 15.6314 20.4604 15.6345 20.5692C15.647 21.0363 15.6582 21.5033 15.6799 21.9697C15.7061 22.5307 15.8721 23.0624 16.0344 23.5947C16.0779 23.7371 16.1289 23.8833 16.0817 24.0307C15.9598 24.4107 15.8279 24.7875 15.4853 25.0375C15.4529 25.0612 15.42 25.0842 15.3926 25.1128C15.1488 25.3653 14.8404 25.4965 14.5095 25.5835C14.2073 25.6631 13.9187 25.6016 13.637 25.4853C13.5636 25.4548 13.4853 25.4355 13.4163 25.3982C13.3298 25.3516 13.2508 25.2919 13.1694 25.2359C12.9896 25.114 12.8472 24.9567 12.7303 24.7745C12.6607 24.6656 12.5898 24.5574 12.5176 24.4505C12.3354 24.1806 12.2428 23.8808 12.2048 23.5599C12.1426 23.0257 12.114 22.4896 12.1619 21.9542C12.188 21.6588 12.2421 21.3634 12.3112 21.0748C12.402 20.6936 12.5201 20.3192 12.6252 19.9418C12.66 19.8174 12.6955 19.693 12.7204 19.5668C12.7465 19.4337 12.6936 19.3398 12.5649 19.3018C12.2328 19.2036 11.9393 19.0232 11.6296 18.8771C11.5587 18.8435 11.4965 18.7906 11.4343 18.7415C11.3447 18.6706 11.2602 18.5935 11.1706 18.5226C10.8964 18.3043 10.6967 18.0294 10.5549 17.711C10.4318 17.4349 10.2782 17.1706 10.2023 16.8746C10.1507 16.6725 10.1028 16.4697 10.0537 16.267C10.0419 16.2191 10.0326 16.1712 10.0189 16.1109C9.93492 16.1787 9.91378 16.2602 9.90196 16.3497C9.84412 16.7969 9.91502 17.2309 10.0307 17.66C10.1339 18.045 10.2695 18.4175 10.4585 18.7701C10.5972 19.0276 10.7763 19.2508 11.0015 19.4362C11.1321 19.5437 11.2614 19.6526 11.3982 19.7515C11.4735 19.8056 11.5612 19.8447 11.6476 19.8802C11.7956 19.9411 11.8578 20.0556 11.813 20.2085C11.6992 20.5941 11.5736 20.9766 11.4722 21.3659C11.2993 22.0276 11.2229 22.7023 11.2396 23.3876C11.2571 24.1209 11.4772 24.7937 11.828 25.4293C11.9355 25.624 12.0282 25.8286 12.1924 25.989C12.3653 26.1582 12.5692 26.2788 12.7763 26.3982C13.165 26.6227 13.591 26.6998 14.0307 26.7247C14.2931 26.7396 14.5568 26.7452 14.8192 26.7583C14.8671 26.7608 14.9181 26.7707 14.961 26.7906C15.0549 26.8348 15.1507 26.8802 15.2359 26.9386C15.3746 27.0338 15.433 27.175 15.4511 27.3422C15.4884 27.6924 15.5214 28.0437 15.6613 28.374C15.7682 28.6258 15.9318 28.836 16.1277 29.0232C16.1563 29.0506 16.1899 29.073 16.2247 29.0922C16.6526 29.3298 17.1022 29.5139 17.5786 29.6271C17.7222 29.6613 17.874 29.6681 18.0226 29.6694C18.3802 29.6731 18.7384 29.6675 19.096 29.6644C19.165 29.6638 19.165 29.6613 19.234 29.7384C19.1432 29.8696 19.0481 30.0014 18.9592 30.137C18.6855 30.5524 18.5568 31.0058 18.5842 31.5058C18.601 31.8124 18.7247 32.073 18.9094 32.3068C18.966 32.3777 19.0518 32.4343 19.1352 32.4735C19.3814 32.5885 19.6271 32.6961 19.8963 32.7651C20.2956 32.8677 20.6992 32.8926 21.1041 32.9106C21.6513 32.9349 22.1973 32.8988 22.7384 32.8099C22.8945 32.7844 23.0475 32.7384 23.1998 32.6936C23.2701 32.6731 23.3348 32.6327 23.4044 32.5997C23.3963 32.5164 23.3478 32.5008 23.2819 32.4977C22.989 32.4846 22.6967 32.466 22.4038 32.4548C21.8808 32.4349 21.3628 32.3764 20.8615 32.2235C20.5388 32.1252 20.2216 32.0114 19.961 31.7776C19.6656 31.512 19.5276 31.2023 19.5829 30.7968C19.6177 30.5412 19.665 30.2968 19.8099 30.081C19.943 29.8833 20.0854 29.6924 20.2222 29.4971C20.3304 29.3429 20.4368 29.1874 20.5437 29.0325C20.5549 29.0164 20.5649 28.9983 20.5723 28.9803C20.6296 28.8385 20.5549 28.7384 20.4032 28.7583C20.2801 28.7745 20.1569 28.795 20.0369 28.8255C19.3056 29.0077 18.5854 28.92 17.874 28.7241C17.4399 28.6047 17.0723 28.3764 16.8304 27.9815C16.6911 27.7546 16.5922 27.5095 16.586 27.2415C16.5835 27.1202 16.6097 26.9927 16.6501 26.8777C16.739 26.6252 16.8522 26.3932 17.073 26.2104C17.3951 25.9442 17.7533 25.7682 18.1476 25.6513C18.6432 25.5039 19.147 25.3945 19.6582 25.3136C20.1582 25.2347 20.6538 25.124 21.1526 25.0381C21.6271 24.9567 22.1034 24.8814 22.5804 24.8186C22.8603 24.7819 23.1445 24.7726 23.4268 24.7558C23.7527 24.7365 24.0543 24.8422 24.3516 24.9567C24.5748 25.0425 24.7825 25.1607 24.9648 25.3167C25.0388 25.3802 25.0935 25.4654 25.1588 25.5388C25.1917 25.5761 25.2241 25.6153 25.2639 25.6445C25.3628 25.7179 25.4672 25.7558 25.5966 25.7116C25.9225 25.5997 26.2092 25.4299 26.4442 25.1762C26.484 25.1333 26.5238 25.0854 26.5468 25.0325C26.693 24.7023 26.7943 24.3603 26.7875 23.9959C26.78 23.5767 26.6613 23.1837 26.4828 22.8068C26.4492 22.7353 26.3895 22.711 26.3155 22.7017C26.0835 22.6725 25.8528 22.6395 25.6208 22.6097C24.6942 22.4921 23.7682 22.3702 22.841 22.2595C22.1687 22.1793 21.5108 22.027 20.8478 21.897C20.5462 21.8379 20.3454 21.6495 20.2029 21.3932C20.0301 21.0817 19.9449 20.739 19.8709 20.3932C19.7751 19.9455 19.7197 19.4921 19.6837 19.0363C19.6582 18.7092 19.6376 18.3821 19.6047 18.0556C19.5866 17.8752 19.6712 17.6812 19.9032 17.6482C20.1097 17.6184 20.3161 17.5885 20.5232 17.5649C20.869 17.5257 21.2148 17.489 21.5605 17.4561C22.2235 17.3926 22.8864 17.3354 23.5493 17.2707C23.9648 17.2303 24.3789 17.1806 24.7937 17.1345C24.9026 17.1227 25.0101 17.101 25.119 17.0954C25.2004 17.091 25.2427 17.0525 25.2782 16.9847C25.3696 16.8087 25.4679 16.6364 25.5624 16.4617C25.6967 16.2135 25.9125 16.0531 26.16 15.9436C26.4281 15.8248 26.7116 15.7608 27.0108 15.7502C29.2626 15.6719 31.5145 15.7284 33.7664 15.7135C34.04 15.7117 34.313 15.6974 34.586 15.7017C34.7178 15.7036 34.8509 15.7297 34.9809 15.7564C35.1793 15.7975 35.3329 15.9169 35.4598 16.068C35.6072 16.2428 35.6525 16.4604 35.6644 16.6793C35.6824 17.0002 35.5667 17.2776 35.3578 17.5245C35.0381 17.9007 34.6936 18.249 34.295 18.5419C34.1706 18.6333 34.0543 18.7353 33.9274 18.8217C33.6818 18.9896 33.4355 19.1582 33.1793 19.3099C33.0667 19.3771 32.9324 19.4125 32.8043 19.4474C32.5568 19.5145 32.3329 19.433 32.1215 19.3124C31.6743 19.0574 31.3198 18.6974 30.9902 18.3093C30.8746 18.1731 30.7664 18.0301 30.6513 17.8932C30.6128 17.8472 30.563 17.8099 30.5145 17.7651C30.4604 17.8491 30.4884 17.9107 30.5176 17.966C30.6165 18.1551 30.716 18.3441 30.8223 18.5288C31.0841 18.9847 31.4162 19.3845 31.7956 19.7483C31.9336 19.8808 32.0922 19.966 32.2713 20.0108C32.5916 20.091 32.9088 20.0742 33.2241 19.966C33.5145 19.8665 33.7732 19.7129 34.0244 19.5425C34.1302 19.471 34.2402 19.4057 34.3646 19.3267C34.3907 19.3821 34.4193 19.4225 34.428 19.4666C34.4579 19.6171 34.4846 19.7689 34.5064 19.9212C34.5742 20.4032 34.6432 20.8845 34.7042 21.3671C34.7371 21.6283 34.7601 21.8908 34.7782 22.1532C34.8118 22.6339 34.8391 23.1153 34.8683 23.596C34.8988 24.1072 34.9169 24.6184 34.8851 25.1302C34.8802 25.2098 34.8764 25.2894 34.8764 25.3684C34.8783 26.1743 34.7402 26.9579 34.5375 27.7359C34.2981 28.6557 33.9094 29.5151 33.5058 30.3677C33.2657 30.8746 32.9479 31.3373 32.6115 31.7894C32.2664 32.2539 31.8907 32.6917 31.4921 33.1059C31.0866 33.5269 30.67 33.9436 30.1787 34.2726C29.9728 34.4106 29.7807 34.5711 29.5686 34.6992C28.7937 35.1662 27.9965 35.5953 27.1501 35.9181C26.5481 36.1476 25.9281 36.3298 25.3049 36.4996C24.9361 36.6003 24.5649 36.6899 24.1899 36.7595C23.8777 36.8174 23.5618 36.8553 23.2465 36.8976C22.9909 36.9324 22.7347 36.9703 22.4772 36.9896C22.0761 37.0195 21.6743 37.0437 21.2726 37.0531C20.9946 37.0599 20.716 37.04 20.438 37.0288C19.8715 37.0058 19.3099 36.9312 18.7477 36.8628C18.109 36.785 17.4859 36.6383 16.869 36.4703C16.3758 36.336 15.8926 36.1625 15.4075 36.0002C14.7415 35.7776 14.1128 35.4685 13.4865 35.1557C13.2956 35.0605 13.1165 34.9424 12.9299 34.8379C12.3752 34.5257 11.8311 34.1955 11.3217 33.8124C11.0083 33.5767 10.7117 33.3174 10.415 33.0605C10.1146 32.8006 9.81427 32.5388 9.52883 32.262C9.23281 31.9753 8.94922 31.6743 8.67062 31.3708C8.27074 30.9349 7.90631 30.4685 7.54935 29.9965C7.50457 29.9368 7.45793 29.8783 7.41751 29.8155C6.96851 29.1177 6.53256 28.4119 6.18679 27.6551C5.79438 26.7956 5.43057 25.925 5.17249 25.0145C5.00271 24.4169 4.85595 23.8143 4.76266 23.1992C4.69177 22.7328 4.60595 22.2689 4.53816 21.8024C4.50458 21.5717 4.49587 21.3379 4.47597 21.1053C4.42933 20.5742 4.4542 20.0419 4.47348 19.5108C4.49401 18.9405 4.5705 18.3746 4.65445 17.8087C4.7695 17.0294 4.96913 16.2714 5.15881 15.5102C5.30433 14.9268 5.49089 14.3541 5.72908 13.8018C5.93492 13.323 6.16129 12.8528 6.39388 12.3864C6.64885 11.8752 6.91378 11.369 7.18865 10.8684C7.49462 10.3112 7.82671 9.76764 8.20047 9.25333C8.58604 8.72224 9.00084 8.21416 9.45606 7.73965C9.70731 7.47784 9.94984 7.20794 10.2061 6.95234C10.8914 6.26888 11.6358 5.65943 12.4741 5.17C12.9032 4.91938 13.3217 4.6501 13.7595 4.41565C14.3329 4.10844 14.915 3.81802 15.5388 3.61963C15.874 3.51267 16.1961 3.36404 16.5307 3.25521C17.1115 3.06615 17.6924 2.87399 18.2987 2.78381C18.8435 2.70235 19.3901 2.62461 19.938 2.56802C20.4119 2.51889 20.8901 2.51205 21.3646 2.46727C21.8416 2.42187 22.3186 2.43742 22.795 2.43804C23.6675 2.43866 24.5294 2.5475 25.3845 2.71727C25.8914 2.81802 26.3963 2.92498 26.892 3.06926C27.2303 3.16814 27.5667 3.27448 27.8976 3.39451C28.3876 3.57237 28.8764 3.75894 29.3292 4.02075C29.7029 4.23717 30.0829 4.44861 30.4318 4.7011C30.6992 4.89451 30.9206 5.15197 31.1681 5.37398C31.5375 5.70545 31.8391 6.09413 32.1134 6.50272C32.2452 6.69923 32.3491 6.91689 32.4436 7.13518C32.6414 7.59164 32.8124 8.06055 32.8764 8.55619C32.9131 8.8404 32.9119 9.13082 32.9119 9.41876C32.9119 9.63206 32.8882 9.84537 32.8727 10.0581C32.869 10.1122 32.8609 10.1675 32.8453 10.2191C32.6799 10.7527 32.4859 11.267 32.0885 11.6874C31.8683 11.9206 31.6283 12.1265 31.3802 12.3236C31.1084 12.5394 30.7819 12.6563 30.4535 12.7583C29.984 12.9044 29.5052 13.0195 29.017 13.0817C28.8062 13.1084 28.5904 13.0923 28.3764 13.091C28.2937 13.0916 28.2247 13.0413 28.1451 12.9878Z" fill="#FFFFFF"/>
</svg>
