<svg preserveAspectRatio="none" width="100%" height="100%" overflow="visible" style="display: block;" viewBox="0 0 208.63 102.886" fill="none" xmlns="http://www.w3.org/2000/svg">
<path id="Vector" d="M208.549 39.3205C208.348 38.7225 207.696 38.4043 207.111 38.6165H207.101C204.089 39.8317 200.809 40.2754 197.548 40.0439C194.277 39.8414 191.045 38.9347 187.937 37.7098C181.713 35.2503 175.958 31.5948 170.356 27.785C164.745 23.9655 159.202 20.011 153.524 16.2108C147.826 12.4492 141.937 8.87091 135.636 6.0256C132.48 4.61742 129.238 3.35391 125.891 2.39904C124.212 1.90714 122.534 1.51169 120.778 1.16447C119.934 1.01979 119.129 0.846176 118.256 0.72079C117.383 0.605048 116.501 0.460372 115.628 0.363921C108.674 -0.426979 101.481 0.0359867 94.6227 2.10004C91.2082 3.15136 87.88 4.58848 84.7724 6.44034C81.7031 8.34043 78.8065 10.5877 76.3032 13.2305C73.7711 15.854 71.6322 18.8633 69.9153 22.0944C69.0521 23.7051 68.304 25.3834 67.6709 27.1002C67.0283 28.7881 66.7502 30.9389 67.5366 32.3953C68.1409 33.5142 69.7619 33.5142 70.5963 33.4949C125.44 32.0192 141.832 67.8315 188.148 53.8172C186.815 54.2222 185.213 55.3411 182.998 56.2863C180.581 57.2797 177.588 58.36 174.059 59.2474C170.539 60.1347 166.491 60.8292 162.05 61.1957C157.609 61.5718 152.766 61.6297 147.663 61.3596C142.561 61.0703 137.199 60.4819 131.684 59.6332C120.644 57.9356 109 55.2157 97.3275 52.4572C85.6548 49.6987 73.9149 46.9016 62.5875 45.1751C56.9286 44.3264 51.3751 43.7091 46.0327 43.5451C40.6903 43.3522 35.5589 43.5837 30.8208 44.2974C26.073 44.9726 21.7281 46.1493 18.0067 47.6153C14.2756 49.0718 11.1584 50.7789 8.7222 52.38C7.51368 53.2192 6.46822 53.9136 5.53785 54.6756C5.07747 55.0517 4.64585 55.3989 4.25261 55.7076C4.06078 55.8716 3.86895 56.0162 3.6963 56.1609C3.55243 56.2959 3.40856 56.4213 3.28387 56.5371C2.23841 57.4823 1.67252 57.9838 1.67252 57.9838C1.61497 58.0417 1.53824 58.1092 1.48069 58.1671C-0.485545 60.1347 -0.495136 63.3272 1.46151 65.3141C3.41815 67.2914 6.59291 67.301 8.56873 65.3334C8.56873 65.3334 9.09626 64.8029 10.0938 63.8095C10.2185 63.6841 10.3527 63.5491 10.487 63.414C10.6117 63.3079 10.7364 63.1922 10.8803 63.0765C11.1488 62.8353 11.4462 62.5749 11.7627 62.2856C12.3765 61.7165 13.2589 61.0606 14.1701 60.3565C16.0596 58.9676 18.4958 57.463 21.5075 56.0934C24.5192 54.7141 28.1352 53.5182 32.2595 52.708C36.3838 51.8592 41.0068 51.3962 45.9752 51.3191C50.9435 51.213 56.2476 51.512 61.7434 52.0424C62.2902 52.1003 62.8465 52.1678 63.4028 52.2257L63.4411 52.5633C63.585 53.6146 63.8056 54.7431 63.9878 55.8233C64.4194 57.9838 64.9278 60.0768 65.58 62.1698C66.8652 66.3365 68.6301 70.3682 70.8649 74.1298C73.0901 77.8914 75.7948 81.3636 78.8737 84.4308C81.9525 87.5075 85.3766 90.1985 89.0406 92.4748C96.3684 97.0369 104.559 99.9594 112.904 101.512C121.268 103.055 129.814 103.258 138.196 102.322C146.589 101.377 154.838 99.2939 162.645 96.0917C170.443 92.8895 177.809 88.5589 184.283 83.1287C190.757 77.7081 196.33 71.1494 200.483 63.7709C204.655 56.402 207.36 48.2423 208.617 39.9089C208.645 39.7353 208.626 39.5424 208.569 39.3688L208.549 39.3205Z" fill="var(--fill-0, white)"/>
</svg>
