<svg width="32" height="32" viewBox="0 0 24.7333 29.08" fill="none" xmlns="http://www.w3.org/2000/svg">
<path id="icon" d="M11.6133 6.18667C11.7733 6.18667 11.8533 6.10667 11.8933 5.96C12.3067 3.82667 12.28 3.78667 14.6133 3.36C14.7733 3.33333 14.8667 3.25333 14.8667 3.09333C14.8667 2.94667 14.7733 2.85333 14.6133 2.82667C12.2933 2.37333 12.3733 2.33333 11.8933 0.226667C11.8533 0.0799999 11.7733 0 11.6133 0C11.4533 0 11.3733 0.0799999 11.3333 0.226667C10.8667 2.33333 10.9467 2.37333 8.62667 2.82667C8.48 2.85333 8.37333 2.94667 8.37333 3.09333C8.37333 3.25333 8.48 3.33333 8.62667 3.36C10.9467 3.81333 10.92 3.82667 11.3333 5.96C11.3733 6.10667 11.4533 6.18667 11.6133 6.18667ZM5.14667 14.9733C5.4 14.9733 5.57333 14.8133 5.6 14.5867C6.08 11.1733 6.2 11.1733 9.89333 10.5067C10.1333 10.4667 10.3067 10.3067 10.3067 10.0667C10.3067 9.84 10.1333 9.68 9.89333 9.64C6.2 9.14667 6.06667 9.04 5.6 5.57333C5.57333 5.33333 5.4 5.17333 5.14667 5.17333C4.90667 5.17333 4.73333 5.33333 4.70667 5.58667C4.26667 9 4.08 8.98667 0.413333 9.64C0.173333 9.69333 0 9.84 0 10.0667C0 10.32 0.173333 10.4667 0.466667 10.5067C4.10667 11.0667 4.26667 11.16 4.70667 14.56C4.73333 14.8133 4.90667 14.9733 5.14667 14.9733ZM14.2133 29.08C14.56 29.08 14.8133 28.84 14.88 28.4933C15.8267 21.5067 16.8533 20.4533 24.1067 19.68C24.48 19.6533 24.7333 19.3733 24.7333 19.0533C24.7333 18.72 24.48 18.4667 24.1067 18.4133C16.8533 17.64 15.8267 16.5867 14.88 9.6C14.8133 9.25333 14.56 9.02667 14.2133 9.02667C13.8667 9.02667 13.6133 9.25333 13.56 9.6C12.6133 16.5867 11.56 17.64 4.33333 18.4133C3.94667 18.4667 3.69333 18.72 3.69333 19.0533C3.69333 19.3733 3.94667 19.6533 4.33333 19.68C11.5467 20.5867 12.56 21.52 13.56 28.4933C13.6133 28.84 13.8667 29.08 14.2133 29.08Z" fill="var(--fill-0, #CC0000)"/>
</svg>
