<svg width="32" height="32" viewBox="0 0 27.4207 20.7947" fill="none" xmlns="http://www.w3.org/2000/svg">
<path id="Vector" d="M2.336 10.3974L6.413 14.4744C6.59744 14.6726 6.69311 14.908 6.7 15.1807C6.70689 15.4534 6.61122 15.6888 6.413 15.887C6.21456 16.0853 5.98033 16.1844 5.71033 16.1844C5.44033 16.1844 5.20611 16.0853 5.00767 15.887L0.361667 11.241C0.120556 10.9999 0 10.7187 0 10.3974C0 10.076 0.120556 9.79481 0.361667 9.55369L5.00767 4.90769C5.20611 4.70947 5.44033 4.61036 5.71033 4.61036C5.98033 4.61036 6.21456 4.70947 6.413 4.90769C6.61122 5.10592 6.71033 5.34136 6.71033 5.61403C6.71033 5.88669 6.61122 6.12214 6.413 6.32036L2.336 10.3974ZM9.895 20.2474C9.76678 20.002 9.74544 19.7486 9.831 19.487L15.6977 0.700028C15.783 0.438472 15.9462 0.243582 16.1873 0.11536C16.4282 -0.0128626 16.6794 -0.0341953 16.941 0.0513602C17.2026 0.136694 17.3996 0.299916 17.532 0.541027C17.6644 0.781916 17.688 1.03314 17.6027 1.29469L11.723 20.0947C11.6377 20.3563 11.4744 20.5511 11.2333 20.6794C10.9924 20.8076 10.7412 20.8289 10.4797 20.7434C10.2181 20.658 10.0232 20.4927 9.895 20.2474ZM25.0847 10.3974L21.0077 6.32036C20.8094 6.12214 20.7103 5.88669 20.7103 5.61403C20.7103 5.34136 20.8094 5.10592 21.0077 4.90769C21.2061 4.70947 21.4403 4.61036 21.7103 4.61036C21.9803 4.61036 22.2146 4.70947 22.413 4.90769L27.059 9.55369C27.3001 9.79481 27.4207 10.076 27.4207 10.3974C27.4207 10.7187 27.3001 10.9999 27.059 11.241L22.413 15.887C22.2146 16.0853 21.9803 16.1844 21.7103 16.1844C21.4403 16.1844 21.2061 16.0853 21.0077 15.887C20.8094 15.6888 20.7103 15.4534 20.7103 15.1807C20.7103 14.908 20.8094 14.6726 21.0077 14.4744L25.0847 10.3974Z" fill="var(--fill-0, #CC0000)"/>
</svg>
