<svg width="32" height="32" viewBox="0 0 26.6667 24.9116" fill="none" xmlns="http://www.w3.org/2000/svg">
<g id="Group">
<path id="Vector" opacity="0" d="M26.6667 0H0V24.9116H26.6667V0Z" fill="var(--fill-0, #CC0000)"/>
<path id="Vector_2" d="M0 12.391C0 15.4653 1.7079 17.1496 4.93522 17.1496H9.02237C13.0978 17.6207 17.3734 18.9635 21.0718 21.2367V19.1401C17.4676 16.9258 13.3098 15.7125 8.9517 15.2532H4.93522C2.77974 15.2532 1.89635 14.4169 1.89635 12.391V10.6596C1.89635 8.6219 2.77974 7.7974 4.93522 7.7974H8.84569C13.2862 7.34981 17.5382 6.08951 21.0718 3.8987V1.8139C17.5264 4.07538 12.7915 5.50059 9.09304 5.90106H4.93522C1.7079 5.90106 0 7.56183 0 10.6596V12.391ZM10.9541 16.9965H9.16372L10.1531 22.0142C10.2473 22.5441 9.97643 22.8857 9.59951 23.0152C9.19904 23.1566 8.6808 23.0271 8.40989 22.4616L5.74793 16.7726H3.81625L6.53709 22.8032C7.50293 24.9588 9.17549 25.0883 10.318 24.7349C11.4723 24.3698 12.1791 23.298 11.8728 21.7314L10.9541 16.9965ZM7.43227 6.79623V16.2544H9.34039V6.79623H7.43227ZM20.4005 20.0589C20.4005 21.8021 21.5783 22.9682 23.3098 22.9682C25.0647 22.9682 26.2308 21.8021 26.2308 20.0589V2.9093C26.2308 1.16608 25.0647 0 23.3098 0C21.5783 0 20.4005 1.16608 20.4005 2.9093V20.0589ZM22.3086 20.0589V2.9093C22.3086 2.29682 22.6973 1.89635 23.3098 1.89635C23.9223 1.89635 24.3345 2.29682 24.3345 2.9093V20.0589C24.3345 20.6714 23.9223 21.0718 23.3098 21.0718C22.6973 21.0718 22.3086 20.6714 22.3086 20.0589Z" fill="var(--fill-0, #CC0000)"/>
</g>
</svg>
