<svg width="32" height="32" viewBox="0 0 27.0443 26.5755" fill="none" xmlns="http://www.w3.org/2000/svg">
<g id="Group">
<path id="Vector" opacity="0" d="M27.0443 0H0V26.5755H27.0443V0Z" fill="var(--fill-0, #CC0000)"/>
<path id="Vector_2" d="M26.5625 13.2813C26.5625 20.612 20.612 26.5625 13.2813 26.5625C5.95052 26.5625 0 20.612 0 13.2813C0 5.95052 5.95052 0 13.2813 0C20.612 0 26.5625 5.95052 26.5625 13.2813ZM12.6312 0.806037C11.7326 0.961009 10.8881 1.4524 10.1336 2.21804C8.37397 2.71435 6.78604 3.61968 5.48183 4.82845C5.37109 4.76627 5.2752 4.6952 5.18229 4.6224C4.80469 4.32292 4.30989 4.28385 3.97136 4.60937C3.64584 4.93489 3.61979 5.45573 3.98437 5.79427C4.08955 5.88924 4.20124 5.9824 4.31987 6.07344C2.89173 7.83203 1.97988 10.0246 1.80681 12.4219H1.56251C1.09375 12.4219 0.703125 12.8125 0.703125 13.2813C0.703125 13.75 1.09375 14.1276 1.56251 14.1276H1.80625C1.97795 16.5483 2.90315 18.7608 4.35311 20.5289C4.22199 20.628 4.09928 20.7296 3.98437 20.8333C3.61979 21.1588 3.64584 21.6927 3.97136 22.0183C4.30989 22.3437 4.80469 22.3047 5.18229 22.0052C5.28779 21.9217 5.39713 21.8407 5.5224 21.7695C6.81588 22.9591 8.38637 23.8503 10.1247 24.3421C10.8592 25.0927 11.6791 25.5825 12.55 25.7548C12.6957 26.0107 12.9682 26.1849 13.2813 26.1849C13.5951 26.1849 13.874 26.0097 14.0233 25.7529C14.8901 25.5785 15.7063 25.0896 16.4379 24.3421C18.1761 23.8503 19.7467 22.9591 21.0401 21.7695C21.1653 21.8407 21.2747 21.9217 21.3803 22.0052C21.7579 22.3047 22.2527 22.3437 22.5912 22.0183C22.9167 21.6927 22.9427 21.1588 22.5781 20.8333C22.4632 20.7296 22.3405 20.628 22.2093 20.5289C23.6593 18.7608 24.5845 16.5483 24.7563 14.1276H25.2604C25.7292 14.1276 26.1197 13.75 26.1197 13.2813C26.1197 12.8125 25.7292 12.4219 25.2604 12.4219H24.7557C24.5827 10.0246 23.6708 7.83203 22.2427 6.07344C22.3612 5.9824 22.4729 5.88924 22.5781 5.79427C22.9427 5.45573 22.9167 4.93489 22.5912 4.60937C22.2527 4.28385 21.7579 4.32292 21.3803 4.6224C21.2873 4.6952 21.1915 4.76627 21.0807 4.82845C19.7764 3.61968 18.1885 2.71435 16.4289 2.21804C15.6769 1.45497 14.8356 0.964327 13.9404 0.807623C13.7819 0.617341 13.5439 0.494792 13.2813 0.494792C13.0195 0.494792 12.7861 0.616635 12.6312 0.806037Z" fill="var(--fill-0, #CC0000)"/>
<path id="Vector_3" d="M12.4349 24.0479V25.3255C12.4349 25.4811 12.4765 25.628 12.5498 25.7544C10.6365 25.3707 8.96652 23.472 7.91108 20.6237C8.42957 20.4464 8.99703 20.3051 9.6016 20.1937C10.325 22.1444 11.3295 23.5653 12.4349 24.0479ZM18.6515 20.6237C17.5981 23.4661 15.9329 25.3629 14.0243 25.7512C14.0984 25.6255 14.1407 25.4797 14.1407 25.3255V24.0431C15.2409 23.5541 16.2403 22.1368 16.9609 20.1937C17.5655 20.3051 18.1329 20.4464 18.6515 20.6237ZM9.10437 18.5893C8.50789 18.7109 7.94041 18.8588 7.41076 19.0311C7.01711 17.5672 6.77607 15.9129 6.72685 14.1276H8.47044C8.52439 15.7171 8.75049 17.2365 9.10437 18.5893ZM19.1517 19.0311C18.6221 18.8588 18.0547 18.7109 17.4581 18.5893C17.812 17.2365 18.0381 15.7171 18.092 14.1276H19.8356C19.7864 15.9129 19.5453 17.5672 19.1517 19.0311ZM9.08556 8.03469C8.74652 9.36349 8.52813 10.8538 8.47167 12.4219H6.72832C6.78073 10.6645 7.01645 9.03625 7.39971 7.59308C7.92709 7.765 8.49203 7.91272 9.08556 8.03469ZM19.8341 12.4219H18.0908C18.0344 10.8538 17.816 9.36349 17.4769 8.03469C18.0705 7.91272 18.6355 7.765 19.1628 7.59308C19.546 9.03625 19.7817 10.6645 19.8341 12.4219ZM12.4349 1.35416V2.51289C11.3167 2.99713 10.3018 4.43531 9.57684 6.42485C8.97477 6.31303 8.41049 6.17073 7.89464 5.99344C8.96371 3.07572 10.6726 1.14838 12.6352 0.801617C12.51 0.951572 12.4349 1.1451 12.4349 1.35416ZM18.6679 5.99344C18.152 6.17073 17.5877 6.31303 16.9856 6.42485C16.2635 4.44297 15.2537 3.00824 14.1407 2.51768V1.35416C14.1407 1.14546 14.0632 0.952243 13.9356 0.802377C15.8947 1.15372 17.6003 3.07975 18.6679 5.99344Z" fill="var(--fill-0, #CC0000)"/>
<path id="Vector_4" d="M13.2813 26.1849C13.75 26.1849 14.1407 25.7943 14.1407 25.3255V1.35416C14.1407 0.885416 13.75 0.494792 13.2813 0.494792C12.8125 0.494792 12.4349 0.885416 12.4349 1.35416V25.3255C12.4349 25.7943 12.8125 26.1849 13.2813 26.1849ZM5.18229 22.0052C6.92708 20.6251 9.72656 19.8828 13.2813 19.8828C16.836 19.8828 19.6355 20.6251 21.3803 22.0052C21.7579 22.3047 22.2527 22.3437 22.5912 22.0183C22.9167 21.6927 22.9427 21.1588 22.5781 20.8333C20.8333 19.2579 17.2917 18.1771 13.2813 18.1771C9.27083 18.1771 5.72917 19.2579 3.98437 20.8333C3.61979 21.1588 3.64584 21.6927 3.97136 22.0183C4.30989 22.3437 4.80469 22.3047 5.18229 22.0052ZM1.56251 14.1276H25.2604C25.7292 14.1276 26.1197 13.75 26.1197 13.2813C26.1197 12.8125 25.7292 12.4219 25.2604 12.4219H1.56251C1.09375 12.4219 0.703125 12.8125 0.703125 13.2813C0.703125 13.75 1.09375 14.1276 1.56251 14.1276ZM13.2813 8.45052C17.2917 8.45052 20.8333 7.36979 22.5781 5.79427C22.9427 5.45573 22.9167 4.93489 22.5912 4.60937C22.2527 4.28385 21.7579 4.32292 21.3803 4.6224C19.6355 5.98959 16.836 6.74479 13.2813 6.74479C9.72656 6.74479 6.92708 5.98959 5.18229 4.6224C4.80469 4.32292 4.30989 4.28385 3.97136 4.60937C3.64584 4.93489 3.61979 5.45573 3.98437 5.79427C5.72917 7.36979 9.27083 8.45052 13.2813 8.45052Z" fill="var(--fill-0, #CC0000)"/>
</g>
</svg>
